<?xml version="1.0" encoding="UTF-8"?>
<!DOCTYPE svg PUBLIC "-//W3C//DTD SVG 1.1//EN" "http://www.w3.org/Graphics/SVG/1.1/DTD/svg11.dtd">
<svg xmlns="http://www.w3.org/2000/svg" version="1.1" viewBox="0 0 2533 943" style="shape-rendering:geometricPrecision; text-rendering:geometricPrecision; image-rendering:optimizeQuality; fill-rule:evenodd; clip-rule:evenodd" xmlns:xlink="http://www.w3.org/1999/xlink">
<g><path fill="#df3232
" d="M 432.5,-0.5 C 442.833,-0.5 453.167,-0.5 463.5,-0.5C 509.825,10.0037 535.659,39.0037 541,86.5C 545.319,132.194 528.152,166.861 489.5,190.5C 513.444,252.721 514.611,315.388 493,378.5C 460.693,456.794 403.193,505.627 320.5,525C 258.145,538.463 197.478,533.13 138.5,509C 58.1943,470.847 11.8609,407.68 -0.5,319.5C -0.5,298.833 -0.5,278.167 -0.5,257.5C 1.74614,241.515 5.41281,225.848 10.5,210.5C 12.0719,207.785 13.0719,204.785 13.5,201.5C 13.2627,200.209 13.596,199.209 14.5,198.5C 15.9313,197.22 16.5979,195.553 16.5,193.5C 17.0883,190.937 18.0883,188.604 19.5,186.5C 21.0075,184.819 22.0075,182.819 22.5,180.5C 23.2271,178.046 24.2271,175.713 25.5,173.5C 27.1042,172.713 27.7709,171.38 27.5,169.5C 28.7515,167.999 29.7515,166.332 30.5,164.5C 31.9063,164.027 32.573,163.027 32.5,161.5C 33.0475,159.515 34.0475,157.849 35.5,156.5C 36.9063,156.027 37.573,155.027 37.5,153.5C 41.451,146.58 46.1176,140.247 51.5,134.5C 52.8333,133.833 53.8333,132.833 54.5,131.5C 55.0256,129.77 56.0256,128.436 57.5,127.5C 64.1667,121.5 70.5,115.167 76.5,108.5C 76.9731,107.094 77.9731,106.427 79.5,106.5C 81.1667,105.5 82.5,104.167 83.5,102.5C 88.2383,97.7691 93.5717,93.7691 99.5,90.5C 101.027,90.573 102.027,89.9063 102.5,88.5C 104.027,88.573 105.027,87.9063 105.5,86.5C 107.001,85.2485 108.668,84.2485 110.5,83.5C 112.674,83.2503 114.341,82.2503 115.5,80.5C 116.965,79.2632 118.632,78.2632 120.5,77.5C 122.38,77.7709 123.713,77.1042 124.5,75.5C 126.713,74.2271 129.046,73.2271 131.5,72.5C 133.153,72.3404 134.486,71.6737 135.5,70.5C 139.923,67.3523 144.923,65.3523 150.5,64.5C 152.153,64.3404 153.486,63.6737 154.5,62.5C 212.366,42.746 271.032,40.246 330.5,55C 337.265,56.8662 343.932,59.0329 350.5,61.5C 351.107,61.3764 351.44,61.0431 351.5,60.5C 352.931,59.2196 353.598,57.5529 353.5,55.5C 354.872,51.7513 356.539,48.0846 358.5,44.5C 359.906,44.0269 360.573,43.0269 360.5,41.5C 362.445,37.2637 365.112,33.5971 368.5,30.5C 370.262,29.7377 371.262,28.4044 371.5,26.5C 374.089,25.5806 376.089,23.914 377.5,21.5C 389.573,11.1333 403.573,4.46662 419.5,1.5C 424.028,1.22956 428.361,0.562891 432.5,-0.5 Z M 481.5,189.5 C 478.458,189.733 475.792,190.733 473.5,192.5C 443.105,199.711 414.438,195.544 387.5,180C 366.478,164.806 353.978,144.306 350,118.5C 348.514,107.539 348.181,96.5394 349,85.5C 349.677,78.6116 351.177,71.9449 353.5,65.5C 414.346,87.5141 458.013,128.014 484.5,187C 483.87,188.31 482.87,189.144 481.5,189.5 Z M 353.5,375.5 C 351.5,375.5 350.5,376.5 350.5,378.5C 344.211,384.968 337.544,390.968 330.5,396.5C 328.973,396.427 327.973,397.094 327.5,398.5C 291.47,419.296 253.137,424.129 212.5,413C 161.543,395.693 133.043,360.193 127,306.5C 122.84,270.275 130.507,236.942 150,206.5C 169.673,181.233 195.506,166.066 227.5,161C 267.844,153.931 304.511,162.265 337.5,186C 363.863,209.899 378.03,239.732 380,275.5C 383.304,312.299 374.47,345.633 353.5,375.5 Z"/></g>
<g><path fill="#df3232
" d="M 423.5,-0.5 C 426.5,-0.5 429.5,-0.5 432.5,-0.5C 428.361,0.562891 424.028,1.22956 419.5,1.5C 420.833,0.833333 422.167,0.166667 423.5,-0.5 Z"/></g>
<g><path fill="#df3232
" d="M 377.5,21.5 C 376.089,23.914 374.089,25.5806 371.5,26.5C 372.911,24.086 374.911,22.4194 377.5,21.5 Z"/></g>
<g><path fill="#df3232
" d="M 371.5,26.5 C 371.262,28.4044 370.262,29.7377 368.5,30.5C 368.738,28.5956 369.738,27.2623 371.5,26.5 Z"/></g>
<g><path fill="#df3232
" d="M 360.5,41.5 C 360.573,43.0269 359.906,44.0269 358.5,44.5C 358.427,42.9731 359.094,41.9731 360.5,41.5 Z"/></g>
<g><path fill="#df3232
" d="M 353.5,55.5 C 353.598,57.5529 352.931,59.2196 351.5,60.5C 351.402,58.4471 352.069,56.7804 353.5,55.5 Z"/></g>
<g><path fill="#df3232
" d="M 154.5,62.5 C 153.486,63.6737 152.153,64.3404 150.5,64.5C 151.287,62.8958 152.62,62.2291 154.5,62.5 Z"/></g>
<g><path fill="#df3232
" d="M 135.5,70.5 C 134.486,71.6737 133.153,72.3404 131.5,72.5C 132.287,70.8958 133.62,70.2291 135.5,70.5 Z"/></g>
<g><path fill="#df3232
" d="M 124.5,75.5 C 123.713,77.1042 122.38,77.7709 120.5,77.5C 121.514,76.3263 122.847,75.6596 124.5,75.5 Z"/></g>
<g><path fill="#df3232
" d="M 115.5,80.5 C 114.341,82.2503 112.674,83.2503 110.5,83.5C 111.659,81.7497 113.326,80.7497 115.5,80.5 Z"/></g>
<g><path fill="#df3232
" d="M 105.5,86.5 C 105.027,87.9063 104.027,88.573 102.5,88.5C 102.973,87.0937 103.973,86.427 105.5,86.5 Z"/></g>
<g><path fill="#df3232
" d="M 102.5,88.5 C 102.027,89.9063 101.027,90.573 99.5,90.5C 99.9731,89.0937 100.973,88.427 102.5,88.5 Z"/></g>
<g><path fill="#df3232
" d="M 903.5,133.5 C 904.738,131.786 905.405,129.786 905.5,127.5C 909.153,118.165 915.153,110.831 923.5,105.5C 925.027,105.573 926.027,104.906 926.5,103.5C 939.822,95.9415 954.155,93.4415 969.5,96C 1005.86,106.536 1019.69,130.369 1011,167.5C 998.229,194.808 976.729,206.308 946.5,202C 923.189,196.689 908.356,182.522 902,159.5C 901.833,155.833 901.667,152.167 901.5,148.5C 901.287,143.233 901.954,138.233 903.5,133.5 Z"/></g>
<g><path fill="#df3232
" d="M 83.5,102.5 C 82.5,104.167 81.1667,105.5 79.5,106.5C 79.8333,104.167 81.1667,102.833 83.5,102.5 Z"/></g>
<g><path fill="#df3232
" d="M 926.5,103.5 C 926.027,104.906 925.027,105.573 923.5,105.5C 923.973,104.094 924.973,103.427 926.5,103.5 Z"/></g>
<g><path fill="#df3232
" d="M 691.5,317.5 C 691.217,318.289 690.717,318.956 690,319.5C 689.5,249.501 689.333,179.501 689.5,109.5C 656.833,109.5 624.167,109.5 591.5,109.5C 591.5,244.5 591.5,379.5 591.5,514.5C 590.5,379.334 590.167,244.001 590.5,108.5C 623.833,108.5 657.167,108.5 690.5,108.5C 690.167,178.335 690.501,248.002 691.5,317.5 Z"/></g>
<g><path fill="#df3232
" d="M 691.5,317.5 C 719.965,289.535 748.299,261.368 776.5,233C 816.832,232.5 857.165,232.333 897.5,232.5C 858.7,272.132 819.033,311.632 778.5,351C 791,367.5 803.5,384 816,400.5C 824.606,410.112 834.106,418.612 844.5,426C 847.167,427 849.833,428 852.5,429C 862.695,430.046 872.862,430.879 883,431.5C 883.828,459.739 883.661,487.905 882.5,516C 865.968,519.179 849.302,520.179 832.5,519C 815.141,516.319 799.808,509.319 786.5,498C 779.333,490.833 772.167,483.667 765,476.5C 748.333,455.833 731.667,435.167 715,414.5C 706.662,422.005 698.495,429.672 690.5,437.5C 689.502,462.995 689.169,488.661 689.5,514.5C 656.833,514.5 624.167,514.5 591.5,514.5C 591.5,379.5 591.5,244.5 591.5,109.5C 624.167,109.5 656.833,109.5 689.5,109.5C 689.333,179.501 689.5,249.501 690,319.5C 690.717,318.956 691.217,318.289 691.5,317.5 Z"/></g>
<g><path fill="#df3232
" d="M 1666.5,249.5 C 1666.22,250.289 1665.72,250.956 1665,251.5C 1664.5,204.168 1664.33,156.835 1664.5,109.5C 1631.83,109.5 1599.17,109.5 1566.5,109.5C 1566.5,244.5 1566.5,379.5 1566.5,514.5C 1565.5,379.334 1565.17,244.001 1565.5,108.5C 1598.83,108.5 1632.17,108.5 1665.5,108.5C 1665.17,155.67 1665.5,202.67 1666.5,249.5 Z"/></g>
<g><path fill="#df3232
" d="M 1666.5,249.5 C 1676.21,241.173 1687.21,234.839 1699.5,230.5C 1699.56,231.043 1699.89,231.376 1700.5,231.5C 1703.02,230.67 1705.35,229.67 1707.5,228.5C 1747.02,217.087 1783.35,223.587 1816.5,248C 1838.85,267.873 1851.85,292.706 1855.5,322.5C 1854.5,386.331 1854.17,450.331 1854.5,514.5C 1821.83,514.5 1789.17,514.5 1756.5,514.5C 1756.83,462.997 1756.5,411.664 1755.5,360.5C 1755.24,347.136 1751.4,334.802 1744,323.5C 1735.69,314.504 1725.36,310.17 1713,310.5C 1689.6,310.569 1674.93,321.903 1669,344.5C 1667.44,351.581 1666.28,358.581 1665.5,365.5C 1664.5,414.997 1664.17,464.664 1664.5,514.5C 1631.83,514.5 1599.17,514.5 1566.5,514.5C 1566.5,379.5 1566.5,244.5 1566.5,109.5C 1599.17,109.5 1631.83,109.5 1664.5,109.5C 1664.33,156.835 1664.5,204.168 1665,251.5C 1665.72,250.956 1666.22,250.289 1666.5,249.5 Z"/></g>
<g><path fill="#df3232
" d="M 76.5,108.5 C 70.5,115.167 64.1667,121.5 57.5,127.5C 62.8333,120.167 69.1667,113.833 76.5,108.5 Z"/></g>
<g><path fill="#df3232
" d="M 905.5,127.5 C 905.405,129.786 904.738,131.786 903.5,133.5C 903.259,131.102 903.926,129.102 905.5,127.5 Z"/></g>
<g><path fill="#df3232
" d="M 54.5,131.5 C 53.8333,132.833 52.8333,133.833 51.5,134.5C 51.5,132.5 52.5,131.5 54.5,131.5 Z"/></g>
<g><path fill="#df3232
" d="M 37.5,153.5 C 37.573,155.027 36.9063,156.027 35.5,156.5C 35.427,154.973 36.0937,153.973 37.5,153.5 Z"/></g>
<g><path fill="#df3232
" d="M 1067.5,156.5 C 1068.5,181.661 1068.83,206.995 1068.5,232.5C 1055.32,232.829 1042.32,232.495 1029.5,231.5C 1042.17,231.5 1054.83,231.5 1067.5,231.5C 1067.5,206.5 1067.5,181.5 1067.5,156.5 Z"/></g>
<g><path fill="#df3232
" d="M 1067.5,156.5 C 1100.5,155.167 1133.5,155.167 1166.5,156.5C 1166.5,181.833 1166.5,207.167 1166.5,232.5C 1187.17,232.5 1207.83,232.5 1228.5,232.5C 1228.5,261.167 1228.5,289.833 1228.5,318.5C 1207.83,318.5 1187.17,318.5 1166.5,318.5C 1166.17,346.672 1166.5,374.672 1167.5,402.5C 1171.62,420.779 1183.29,429.779 1202.5,429.5C 1210.91,428.685 1219.24,427.352 1227.5,425.5C 1229.5,425.167 1231.5,424.833 1233.5,424.5C 1233.17,454.005 1233.5,483.338 1234.5,512.5C 1226.7,516.372 1218.37,518.872 1209.5,520C 1188.87,522.845 1168.2,523.179 1147.5,521C 1101.06,512.062 1074.73,484.228 1068.5,437.5C 1068.5,397.833 1068.5,358.167 1068.5,318.5C 1055.17,318.5 1041.83,318.5 1028.5,318.5C 1028.83,289.662 1028.5,260.995 1027.5,232.5C 1027.84,231.662 1028.51,231.328 1029.5,231.5C 1042.32,232.495 1055.32,232.829 1068.5,232.5C 1068.83,206.995 1068.5,181.661 1067.5,156.5 Z"/></g>
<g><path fill="#df3232
" d="M 32.5,161.5 C 32.573,163.027 31.9063,164.027 30.5,164.5C 30.427,162.973 31.0937,161.973 32.5,161.5 Z"/></g>
<g><path fill="#df3232
" d="M 27.5,169.5 C 27.7709,171.38 27.1042,172.713 25.5,173.5C 25.6596,171.847 26.3263,170.514 27.5,169.5 Z"/></g>
<g><path fill="#df3232
" d="M 22.5,180.5 C 22.0075,182.819 21.0075,184.819 19.5,186.5C 19.461,183.911 20.461,181.911 22.5,180.5 Z"/></g>
<g><path fill="#df3232
" d="M 481.5,189.5 C 479.208,191.267 476.542,192.267 473.5,192.5C 475.792,190.733 478.458,189.733 481.5,189.5 Z"/></g>
<g><path fill="#df3232
" d="M 16.5,193.5 C 16.5979,195.553 15.9313,197.22 14.5,198.5C 14.4021,196.447 15.0687,194.78 16.5,193.5 Z"/></g>
<g><path fill="#df3232
" d="M 13.5,201.5 C 13.0719,204.785 12.0719,207.785 10.5,210.5C 10.5275,207.084 11.5275,204.084 13.5,201.5 Z"/></g>
<g><path fill="#df3232
" d="M 1434.5,426.5 C 1436.67,426.25 1438.34,425.25 1439.5,423.5C 1441.23,421.774 1443.23,420.441 1445.5,419.5C 1446.76,420.016 1447.76,419.35 1448.5,417.5C 1449.29,416.599 1450.29,415.932 1451.5,415.5C 1453.59,414.415 1454.92,412.749 1455.5,410.5C 1457.68,407.401 1460.01,404.401 1462.5,401.5C 1489.89,416.279 1517.39,430.946 1545,445.5C 1544.97,447.598 1544.3,449.598 1543,451.5C 1514.11,492.298 1474.61,515.798 1424.5,522C 1378.3,526.79 1336.97,515.123 1300.5,487C 1261.93,451.325 1245.43,407.159 1251,354.5C 1252.84,334.452 1258.67,315.785 1268.5,298.5C 1269.91,298.027 1270.57,297.027 1270.5,295.5C 1270.83,294.833 1271.17,294.167 1271.5,293.5C 1272.91,293.027 1273.57,292.027 1273.5,290.5C 1276.09,285.253 1279.42,280.586 1283.5,276.5C 1289.12,271.548 1294.45,266.215 1299.5,260.5C 1299.97,259.094 1300.97,258.427 1302.5,258.5C 1303.83,257.833 1304.83,256.833 1305.5,255.5C 1329.26,237.309 1356.26,226.809 1386.5,224C 1446.25,218.237 1495.75,237.737 1535,282.5C 1538.8,287.265 1541.97,292.432 1544.5,298C 1517.57,314.071 1490.24,329.571 1462.5,344.5C 1449.2,324.844 1430.54,314.51 1406.5,313.5C 1379.97,314.548 1362.47,327.548 1354,352.5C 1347.84,374.387 1351.17,394.721 1364,413.5C 1379.07,428.966 1397.23,434.8 1418.5,431C 1423.94,429.797 1429.27,428.297 1434.5,426.5 Z"/></g>
<g><path fill="#df3232
" d="M 2187.5,387.5 C 2186.52,390.962 2186.19,394.629 2186.5,398.5C 2118.83,398.5 2051.17,398.5 1983.5,398.5C 1983.22,400.415 1983.55,402.081 1984.5,403.5C 1991.45,421.256 2004.45,432.089 2023.5,436C 2047.72,441.375 2070.39,437.875 2091.5,425.5C 2092.83,424.833 2093.83,423.833 2094.5,422.5C 2097.71,418.615 2100.88,414.615 2104,410.5C 2130.43,422.629 2156.93,434.629 2183.5,446.5C 2184.66,448.55 2184.5,450.55 2183,452.5C 2159.52,488.182 2126.69,510.348 2084.5,519C 2046,526.128 2008.33,523.128 1971.5,510C 1907.58,480.626 1877.41,430.46 1881,359.5C 1882.71,338.211 1888.54,318.211 1898.5,299.5C 1900.25,298.341 1901.25,296.674 1901.5,294.5C 1903.57,290.06 1906.24,286.06 1909.5,282.5C 1910.91,282.027 1911.57,281.027 1911.5,279.5C 1912.78,276.553 1914.78,274.219 1917.5,272.5C 1921.83,268.833 1925.83,264.833 1929.5,260.5C 1929.97,259.094 1930.97,258.427 1932.5,258.5C 1933.83,257.833 1934.83,256.833 1935.5,255.5C 1959.42,236.823 1986.75,226.323 2017.5,224C 2060.85,219.003 2100.18,229.003 2135.5,254C 2171.58,285.02 2189.25,324.52 2188.5,372.5C 2188.5,377.678 2188.17,382.678 2187.5,387.5 Z M 2092.5,339.5 C 2056.18,341.494 2019.52,342.16 1982.5,341.5C 1982.5,340.167 1982.5,338.833 1982.5,337.5C 1987.39,319.45 1999.05,308.283 2017.5,304C 2038.53,298.673 2058.2,301.673 2076.5,313C 2084.79,320.093 2090.13,328.926 2092.5,339.5 Z"/></g>
<g><path fill="#df3232
" d="M 2507.5,322.5 C 2506.5,386.331 2506.17,450.331 2506.5,514.5C 2473.83,514.5 2441.17,514.5 2408.5,514.5C 2408.83,462.997 2408.5,411.664 2407.5,360.5C 2405.24,318.535 2383.91,303.369 2343.5,315C 2333.26,320.318 2326.42,328.485 2323,339.5C 2320.99,345.857 2319.49,352.19 2318.5,358.5C 2317.5,410.331 2317.17,462.331 2317.5,514.5C 2284.83,514.5 2252.17,514.5 2219.5,514.5C 2219.83,419.999 2219.5,325.665 2218.5,231.5C 2239.66,230.337 2261,230.171 2282.5,231C 2295.3,235.965 2303.3,245.132 2306.5,258.5C 2306.35,261.853 2307.01,262.186 2308.5,259.5C 2310.55,256.45 2313.22,254.117 2316.5,252.5C 2317.83,251.833 2318.83,250.833 2319.5,249.5C 2319.5,248.833 2319.83,248.5 2320.5,248.5C 2322.4,248.262 2323.74,247.262 2324.5,245.5C 2326.03,245.573 2327.03,244.906 2327.5,243.5C 2359.35,223.116 2393.68,217.949 2430.5,228C 2475.46,243.739 2501.13,275.239 2507.5,322.5 Z"/></g>
<g><path fill="#df3232
" d="M 1707.5,228.5 C 1705.35,229.67 1703.02,230.67 1700.5,231.5C 1699.89,231.376 1699.56,231.043 1699.5,230.5C 1701.99,229.226 1704.66,228.56 1707.5,228.5 Z"/></g>
<g><path fill="#df3232
" d="M 1166.5,156.5 C 1167.5,181.328 1167.83,206.328 1167.5,231.5C 1188.17,231.5 1208.83,231.5 1229.5,231.5C 1229.5,260.833 1229.5,290.167 1229.5,319.5C 1208.83,319.5 1188.17,319.5 1167.5,319.5C 1167.5,347.167 1167.5,374.833 1167.5,402.5C 1166.5,374.672 1166.17,346.672 1166.5,318.5C 1187.17,318.5 1207.83,318.5 1228.5,318.5C 1228.5,289.833 1228.5,261.167 1228.5,232.5C 1207.83,232.5 1187.17,232.5 1166.5,232.5C 1166.5,207.167 1166.5,181.833 1166.5,156.5 Z"/></g>
<g><path fill="#df3232
" d="M 2218.5,231.5 C 2219.5,325.665 2219.83,419.999 2219.5,514.5C 2252.17,514.5 2284.83,514.5 2317.5,514.5C 2317.17,462.331 2317.5,410.331 2318.5,358.5C 2318.5,410.833 2318.5,463.167 2318.5,515.5C 2285.17,515.5 2251.83,515.5 2218.5,515.5C 2218.5,420.833 2218.5,326.167 2218.5,231.5 Z"/></g>
<g><path fill="#df3232
" d="M 908.5,514.5 C 907.501,420.335 907.167,326.001 907.5,231.5C 940.833,231.5 974.167,231.5 1007.5,231.5C 1007.5,326.167 1007.5,420.833 1007.5,515.5C 974.329,515.832 941.329,515.498 908.5,514.5 Z"/></g>
<g><path fill="#df3232
" d="M 908.5,514.5 C 908.5,420.5 908.5,326.5 908.5,232.5C 941.167,232.5 973.833,232.5 1006.5,232.5C 1006.5,326.5 1006.5,420.5 1006.5,514.5C 973.833,514.5 941.167,514.5 908.5,514.5 Z"/></g>
<g><path fill="#df3232
" d="M 2327.5,243.5 C 2327.03,244.906 2326.03,245.573 2324.5,245.5C 2324.97,244.094 2325.97,243.427 2327.5,243.5 Z"/></g>
<g><path fill="#df3232
" d="M 2324.5,245.5 C 2323.74,247.262 2322.4,248.262 2320.5,248.5C 2321.26,246.738 2322.6,245.738 2324.5,245.5 Z"/></g>
<g><path fill="#df3232
" d="M 2319.5,249.5 C 2318.83,250.833 2317.83,251.833 2316.5,252.5C 2316.5,250.5 2317.5,249.5 2319.5,249.5 Z"/></g>
<g><path fill="#df3232
" d="M 1935.5,255.5 C 1934.83,256.833 1933.83,257.833 1932.5,258.5C 1932.5,256.5 1933.5,255.5 1935.5,255.5 Z"/></g>
<g><path fill="#df3232
" d="M 1305.5,255.5 C 1304.83,256.833 1303.83,257.833 1302.5,258.5C 1302.5,256.5 1303.5,255.5 1305.5,255.5 Z"/></g>
<g><path fill="#df3232
" d="M 2306.5,258.5 C 2307.17,258.833 2307.83,259.167 2308.5,259.5C 2307.01,262.186 2306.35,261.853 2306.5,258.5 Z"/></g>
<g><path fill="#df3232
" d="M 897.5,232.5 C 857.165,232.333 816.832,232.5 776.5,233C 748.299,261.368 719.965,289.535 691.5,317.5C 718.915,288.584 746.915,260.084 775.5,232C 816.335,231.169 857.002,231.335 897.5,232.5 Z"/></g>
<g><path fill="#df3232
" d="M 1929.5,260.5 C 1925.83,264.833 1921.83,268.833 1917.5,272.5C 1920.5,267.5 1924.5,263.5 1929.5,260.5 Z"/></g>
<g><path fill="#df3232
" d="M 1299.5,260.5 C 1294.45,266.215 1289.12,271.548 1283.5,276.5C 1287.85,270.145 1293.19,264.812 1299.5,260.5 Z"/></g>
<g><path fill="#df3232
" d="M 1911.5,279.5 C 1911.57,281.027 1910.91,282.027 1909.5,282.5C 1909.43,280.973 1910.09,279.973 1911.5,279.5 Z"/></g>
<g><path fill="#df3232
" d="M 1273.5,290.5 C 1273.57,292.027 1272.91,293.027 1271.5,293.5C 1271.43,291.973 1272.09,290.973 1273.5,290.5 Z"/></g>
<g><path fill="#df3232
" d="M 1901.5,294.5 C 1901.25,296.674 1900.25,298.341 1898.5,299.5C 1898.75,297.326 1899.75,295.659 1901.5,294.5 Z"/></g>
<g><path fill="#df3232
" d="M 1270.5,295.5 C 1270.57,297.027 1269.91,298.027 1268.5,298.5C 1268.43,296.973 1269.09,295.973 1270.5,295.5 Z"/></g>
<g><path fill="#df3232
" d="M 1027.5,232.5 C 1028.5,260.995 1028.83,289.662 1028.5,318.5C 1041.83,318.5 1055.17,318.5 1068.5,318.5C 1068.5,358.167 1068.5,397.833 1068.5,437.5C 1067.5,398.337 1067.17,359.004 1067.5,319.5C 1054.17,319.5 1040.83,319.5 1027.5,319.5C 1027.5,290.5 1027.5,261.5 1027.5,232.5 Z"/></g>
<g><path fill="#df3232
" d="M 1982.5,337.5 C 1982.5,338.833 1982.5,340.167 1982.5,341.5C 2019.52,342.16 2056.18,341.494 2092.5,339.5C 2093.4,340.209 2093.74,341.209 2093.5,342.5C 2056.17,342.5 2018.83,342.5 1981.5,342.5C 1981.22,340.585 1981.55,338.919 1982.5,337.5 Z"/></g>
<g><path fill="#df3232
" d="M 1855.5,322.5 C 1855.5,386.833 1855.5,451.167 1855.5,515.5C 1822.17,515.5 1788.83,515.5 1755.5,515.5C 1755.5,463.833 1755.5,412.167 1755.5,360.5C 1756.5,411.664 1756.83,462.997 1756.5,514.5C 1789.17,514.5 1821.83,514.5 1854.5,514.5C 1854.17,450.331 1854.5,386.331 1855.5,322.5 Z"/></g>
<g><path fill="#df3232
" d="M 2507.5,322.5 C 2507.5,386.833 2507.5,451.167 2507.5,515.5C 2474.17,515.5 2440.83,515.5 2407.5,515.5C 2407.5,463.833 2407.5,412.167 2407.5,360.5C 2408.5,411.664 2408.83,462.997 2408.5,514.5C 2441.17,514.5 2473.83,514.5 2506.5,514.5C 2506.17,450.331 2506.5,386.331 2507.5,322.5 Z"/></g>
<g><path fill="#df3232
" d="M 1665.5,365.5 C 1665.5,415.5 1665.5,465.5 1665.5,515.5C 1632.33,515.832 1599.33,515.498 1566.5,514.5C 1599.17,514.5 1631.83,514.5 1664.5,514.5C 1664.17,464.664 1664.5,414.997 1665.5,365.5 Z"/></g>
<g><path fill="#df3232
" d="M 353.5,375.5 C 352.833,376.833 351.833,377.833 350.5,378.5C 350.5,376.5 351.5,375.5 353.5,375.5 Z"/></g>
<g><path fill="#df3232
" d="M 330.5,396.5 C 330.027,397.906 329.027,398.573 327.5,398.5C 327.973,397.094 328.973,396.427 330.5,396.5 Z"/></g>
<g><path fill="#df3232
" d="M 2187.5,387.5 C 2187.5,391.5 2187.5,395.5 2187.5,399.5C 2119.83,399.5 2052.17,399.5 1984.5,399.5C 1984.5,400.833 1984.5,402.167 1984.5,403.5C 1983.55,402.081 1983.22,400.415 1983.5,398.5C 2051.17,398.5 2118.83,398.5 2186.5,398.5C 2186.19,394.629 2186.52,390.962 2187.5,387.5 Z"/></g>
<g><path fill="#df3232
" d="M 1455.5,410.5 C 1454.92,412.749 1453.59,414.415 1451.5,415.5C 1452.08,413.251 1453.41,411.585 1455.5,410.5 Z"/></g>
<g><path fill="#df3232
" d="M 1448.5,417.5 C 1447.76,419.35 1446.76,420.016 1445.5,419.5C 1445.97,418.094 1446.97,417.427 1448.5,417.5 Z"/></g>
<g><path fill="#df3232
" d="M 1234.5,512.5 C 1233.5,483.338 1233.17,454.005 1233.5,424.5C 1231.5,424.833 1229.5,425.167 1227.5,425.5C 1229.44,423.837 1231.77,423.171 1234.5,423.5C 1234.5,453.167 1234.5,482.833 1234.5,512.5 Z"/></g>
<g><path fill="#df3232
" d="M 1439.5,423.5 C 1438.34,425.25 1436.67,426.25 1434.5,426.5C 1435.66,424.75 1437.33,423.75 1439.5,423.5 Z"/></g>
<g><path fill="#df3232
" d="M 2094.5,422.5 C 2093.83,423.833 2092.83,424.833 2091.5,425.5C 2091.5,423.5 2092.5,422.5 2094.5,422.5 Z"/></g>
<g><path fill="#df3232
" d="M 690.5,437.5 C 690.5,463.5 690.5,489.5 690.5,515.5C 657.329,515.832 624.329,515.498 591.5,514.5C 624.167,514.5 656.833,514.5 689.5,514.5C 689.169,488.661 689.502,462.995 690.5,437.5 Z"/></g>
<g><path fill="#df3232
" d="M 1239.5,832.5 C 1241.55,832.598 1243.22,831.931 1244.5,830.5C 1244.83,830.5 1245.17,830.5 1245.5,830.5C 1247.67,830.25 1249.34,829.25 1250.5,827.5C 1254.84,824.484 1258.84,821.151 1262.5,817.5C 1263.83,816.833 1264.83,815.833 1265.5,814.5C 1265.5,814.167 1265.5,813.833 1265.5,813.5C 1266.5,812.833 1267.5,812.167 1268.5,811.5C 1281.23,819.083 1293.23,827.583 1304.5,837C 1289.23,859.649 1267.89,872.649 1240.5,876C 1201.17,880.91 1170,867.41 1147,835.5C 1133.85,811.424 1130.85,786.091 1138,759.5C 1138.94,756.626 1140.11,753.96 1141.5,751.5C 1143.67,748.485 1145.34,745.151 1146.5,741.5C 1148.35,737.789 1150.68,734.456 1153.5,731.5C 1154.91,731.027 1155.57,730.027 1155.5,728.5C 1159.44,726.234 1162.77,723.234 1165.5,719.5C 1187.69,702.115 1213.02,695.282 1241.5,699C 1267.28,702.483 1287.78,714.649 1303,735.5C 1304.4,737.146 1304.57,738.813 1303.5,740.5C 1291.5,748.5 1279.5,756.5 1267.5,764.5C 1256.34,747.092 1240.34,739.592 1219.5,742C 1195.31,747.373 1182.97,762.54 1182.5,787.5C 1185.84,822.159 1204.84,837.159 1239.5,832.5 Z"/></g>
<g><path fill="#df3232
" d="M 972.5,835.5 C 972.5,848.5 972.5,861.5 972.5,874.5C 966.833,874.5 961.167,874.5 955.5,874.5C 942.801,873.482 931.801,868.649 922.5,860C 911.212,848.887 900.879,837.054 891.5,824.5C 885.355,823.51 879.022,823.177 872.5,823.5C 872.5,839.833 872.5,856.167 872.5,872.5C 857.5,872.5 842.5,872.5 827.5,872.5C 827.5,815.833 827.5,759.167 827.5,702.5C 858.018,701.097 888.684,701.264 919.5,703C 957.772,711.032 974.938,734.532 971,773.5C 966.86,792.135 956.694,806.468 940.5,816.5C 944.685,821.518 949.351,826.018 954.5,830C 960.449,832.411 966.449,834.244 972.5,835.5 Z M 903.5,743.5 C 912.48,744.804 918.48,749.804 921.5,758.5C 921.628,762.881 921.295,767.215 920.5,771.5C 919.89,772.391 919.557,773.391 919.5,774.5C 917.251,775.08 915.585,776.413 914.5,778.5C 914.5,779.167 914.167,779.5 913.5,779.5C 911.973,779.427 910.973,780.094 910.5,781.5C 910.167,781.5 909.833,781.5 909.5,781.5C 906.933,781.721 904.599,782.388 902.5,783.5C 892.833,783.5 883.167,783.5 873.5,783.5C 873.5,770.167 873.5,756.833 873.5,743.5C 883.5,743.5 893.5,743.5 903.5,743.5 Z"/></g>
<g><path fill="#df3232
" d="M 1479.5,825.5 C 1464.68,824.504 1449.68,824.171 1434.5,824.5C 1434.5,840.5 1434.5,856.5 1434.5,872.5C 1419.5,872.5 1404.5,872.5 1389.5,872.5C 1389.5,815.833 1389.5,759.167 1389.5,702.5C 1421.35,701.092 1453.35,701.259 1485.5,703C 1524.82,711.332 1541.99,735.499 1537,775.5C 1528.9,804.759 1509.73,821.426 1479.5,825.5 Z M 1470.5,743.5 C 1478.18,745.01 1483.68,749.344 1487,756.5C 1488.58,763.433 1487.75,770.099 1484.5,776.5C 1482.5,776.5 1481.5,777.5 1481.5,779.5C 1479.52,780.471 1477.52,781.471 1475.5,782.5C 1473.5,782.833 1471.5,783.167 1469.5,783.5C 1468.83,783.5 1468.5,783.833 1468.5,784.5C 1457.5,784.5 1446.5,784.5 1435.5,784.5C 1435.5,770.833 1435.5,757.167 1435.5,743.5C 1447.17,743.5 1458.83,743.5 1470.5,743.5 Z"/></g>
<g><path fill="#df3232
" d="M 1121.5,702.5 C 1121.5,715.833 1121.5,729.167 1121.5,742.5C 1093.83,742.5 1066.17,742.5 1038.5,742.5C 1038.17,751.255 1038.5,759.255 1039.5,766.5C 1064.01,766.169 1088.34,766.502 1112.5,767.5C 1112.5,780.167 1112.5,792.833 1112.5,805.5C 1087.83,805.5 1063.17,805.5 1038.5,805.5C 1038.5,814.833 1038.5,824.167 1038.5,833.5C 1067.17,833.5 1095.83,833.5 1124.5,833.5C 1124.5,846.5 1124.5,859.5 1124.5,872.5C 1080.83,872.5 1037.17,872.5 993.5,872.5C 993.5,815.833 993.5,759.167 993.5,702.5C 1036.17,701.167 1078.83,701.167 1121.5,702.5 Z"/></g>
<g><path fill="#df3232
" d="M 1316.5,703.5 C 1317.5,759.664 1317.83,815.998 1317.5,872.5C 1332.5,872.5 1347.5,872.5 1362.5,872.5C 1362.5,872.833 1362.5,873.167 1362.5,873.5C 1347.17,873.5 1331.83,873.5 1316.5,873.5C 1316.5,816.833 1316.5,760.167 1316.5,703.5 Z"/></g>
<g><path fill="#df3232
" d="M 1316.5,703.5 C 1316.84,702.662 1317.51,702.328 1318.5,702.5C 1332.99,703.496 1347.66,703.829 1362.5,703.5C 1362.5,759.833 1362.5,816.167 1362.5,872.5C 1347.5,872.5 1332.5,872.5 1317.5,872.5C 1317.83,815.998 1317.5,759.664 1316.5,703.5 Z"/></g>
<g><path fill="#df3232
" d="M 1318.5,702.5 C 1333.5,702.5 1348.5,702.5 1363.5,702.5C 1363.83,759.669 1363.5,816.669 1362.5,873.5C 1362.5,873.167 1362.5,872.833 1362.5,872.5C 1362.5,816.167 1362.5,759.833 1362.5,703.5C 1347.66,703.829 1332.99,703.496 1318.5,702.5 Z"/></g>
<g><path fill="#df3232
" d="M 1679.5,702.5 C 1679.5,715.833 1679.5,729.167 1679.5,742.5C 1651.83,742.5 1624.17,742.5 1596.5,742.5C 1596.17,751.255 1596.5,759.255 1597.5,766.5C 1622.01,766.169 1646.34,766.502 1670.5,767.5C 1670.5,780.167 1670.5,792.833 1670.5,805.5C 1645.83,805.5 1621.17,805.5 1596.5,805.5C 1596.5,814.833 1596.5,824.167 1596.5,833.5C 1625.17,833.5 1653.83,833.5 1682.5,833.5C 1682.5,846.5 1682.5,859.5 1682.5,872.5C 1638.83,872.5 1595.17,872.5 1551.5,872.5C 1551.5,815.833 1551.5,759.167 1551.5,702.5C 1594.17,701.167 1636.83,701.167 1679.5,702.5 Z"/></g>
<g><path fill="#df3232
" d="M 827.5,702.5 C 827.5,759.167 827.5,815.833 827.5,872.5C 842.5,872.5 857.5,872.5 872.5,872.5C 872.5,856.167 872.5,839.833 872.5,823.5C 879.022,823.177 885.355,823.51 891.5,824.5C 885.5,824.5 879.5,824.5 873.5,824.5C 873.5,840.833 873.5,857.167 873.5,873.5C 857.833,873.5 842.167,873.5 826.5,873.5C 826.168,816.331 826.501,759.331 827.5,702.5 Z"/></g>
<g><path fill="#df3232
" d="M 1389.5,702.5 C 1389.5,759.167 1389.5,815.833 1389.5,872.5C 1404.5,872.5 1419.5,872.5 1434.5,872.5C 1434.5,856.5 1434.5,840.5 1434.5,824.5C 1449.68,824.171 1464.68,824.504 1479.5,825.5C 1464.83,825.5 1450.17,825.5 1435.5,825.5C 1435.5,841.5 1435.5,857.5 1435.5,873.5C 1419.83,873.5 1404.17,873.5 1388.5,873.5C 1388.17,816.331 1388.5,759.331 1389.5,702.5 Z"/></g>
<g><path fill="#df3232
" d="M 1165.5,719.5 C 1162.77,723.234 1159.44,726.234 1155.5,728.5C 1158.23,724.766 1161.56,721.766 1165.5,719.5 Z"/></g>
<g><path fill="#df3232
" d="M 1155.5,728.5 C 1155.57,730.027 1154.91,731.027 1153.5,731.5C 1153.43,729.973 1154.09,728.973 1155.5,728.5 Z"/></g>
<g><path fill="#df3232
" d="M 1121.5,702.5 C 1122.5,715.99 1122.83,729.656 1122.5,743.5C 1094.83,743.5 1067.17,743.5 1039.5,743.5C 1039.5,751.167 1039.5,758.833 1039.5,766.5C 1038.5,759.255 1038.17,751.255 1038.5,742.5C 1066.17,742.5 1093.83,742.5 1121.5,742.5C 1121.5,729.167 1121.5,715.833 1121.5,702.5 Z"/></g>
<g><path fill="#df3232
" d="M 1679.5,702.5 C 1680.5,715.99 1680.83,729.656 1680.5,743.5C 1652.83,743.5 1625.17,743.5 1597.5,743.5C 1597.5,751.167 1597.5,758.833 1597.5,766.5C 1596.5,759.255 1596.17,751.255 1596.5,742.5C 1624.17,742.5 1651.83,742.5 1679.5,742.5C 1679.5,729.167 1679.5,715.833 1679.5,702.5 Z"/></g>
<g><path fill="#df3232
" d="M 903.5,743.5 C 893.5,743.5 883.5,743.5 873.5,743.5C 873.5,756.833 873.5,770.167 873.5,783.5C 883.167,783.5 892.833,783.5 902.5,783.5C 892.681,784.494 882.681,784.827 872.5,784.5C 872.5,770.5 872.5,756.5 872.5,742.5C 883.014,742.172 893.347,742.506 903.5,743.5 Z"/></g>
<g><path fill="#df3232
" d="M 1470.5,743.5 C 1458.83,743.5 1447.17,743.5 1435.5,743.5C 1435.5,757.167 1435.5,770.833 1435.5,784.5C 1446.5,784.5 1457.5,784.5 1468.5,784.5C 1457.35,785.495 1446.01,785.828 1434.5,785.5C 1434.5,771.167 1434.5,756.833 1434.5,742.5C 1446.68,742.172 1458.68,742.505 1470.5,743.5 Z"/></g>
<g><path fill="#df3232
" d="M 1146.5,741.5 C 1145.34,745.151 1143.67,748.485 1141.5,751.5C 1142.13,747.58 1143.79,744.247 1146.5,741.5 Z"/></g>
<g><path fill="#df3232
" d="M 921.5,758.5 C 922.161,760.134 922.494,761.967 922.5,764C 922.7,766.866 922.033,769.366 920.5,771.5C 921.295,767.215 921.628,762.881 921.5,758.5 Z"/></g>
<g><path fill="#df3232
" d="M 919.5,774.5 C 918.415,776.587 916.749,777.92 914.5,778.5C 915.585,776.413 917.251,775.08 919.5,774.5 Z"/></g>
<g><path fill="#df3232
" d="M 1484.5,776.5 C 1483.83,777.833 1482.83,778.833 1481.5,779.5C 1481.5,777.5 1482.5,776.5 1484.5,776.5 Z"/></g>
<g><path fill="#df3232
" d="M 913.5,779.5 C 913.027,780.906 912.027,781.573 910.5,781.5C 910.973,780.094 911.973,779.427 913.5,779.5 Z"/></g>
<g><path fill="#df3232
" d="M 909.5,781.5 C 907.562,783.163 905.228,783.829 902.5,783.5C 904.599,782.388 906.933,781.721 909.5,781.5 Z"/></g>
<g><path fill="#df3232
" d="M 1475.5,782.5 C 1473.68,784.461 1471.68,784.794 1469.5,783.5C 1471.5,783.167 1473.5,782.833 1475.5,782.5 Z"/></g>
<g><path fill="#df3232
" d="M 1112.5,767.5 C 1113.5,780.323 1113.83,793.323 1113.5,806.5C 1088.83,806.5 1064.17,806.5 1039.5,806.5C 1039.5,815.167 1039.5,823.833 1039.5,832.5C 1068,832.169 1096.34,832.502 1124.5,833.5C 1095.83,833.5 1067.17,833.5 1038.5,833.5C 1038.5,824.167 1038.5,814.833 1038.5,805.5C 1063.17,805.5 1087.83,805.5 1112.5,805.5C 1112.5,792.833 1112.5,780.167 1112.5,767.5 Z"/></g>
<g><path fill="#df3232
" d="M 1670.5,767.5 C 1671.5,780.323 1671.83,793.323 1671.5,806.5C 1646.83,806.5 1622.17,806.5 1597.5,806.5C 1597.5,815.167 1597.5,823.833 1597.5,832.5C 1626,832.169 1654.34,832.502 1682.5,833.5C 1653.83,833.5 1625.17,833.5 1596.5,833.5C 1596.5,824.167 1596.5,814.833 1596.5,805.5C 1621.17,805.5 1645.83,805.5 1670.5,805.5C 1670.5,792.833 1670.5,780.167 1670.5,767.5 Z"/></g>
<g><path fill="#df3232
" d="M 1268.5,811.5 C 1267.5,812.167 1266.5,812.833 1265.5,813.5C 1265.67,810.949 1266.67,810.282 1268.5,811.5 Z"/></g>
<g><path fill="#df3232
" d="M 1265.5,814.5 C 1264.83,815.833 1263.83,816.833 1262.5,817.5C 1262.5,815.5 1263.5,814.5 1265.5,814.5 Z"/></g>
<g><path fill="#df3232
" d="M 1250.5,827.5 C 1249.34,829.25 1247.67,830.25 1245.5,830.5C 1246.66,828.75 1248.33,827.75 1250.5,827.5 Z"/></g>
<g><path fill="#df3232
" d="M 1244.5,830.5 C 1243.22,831.931 1241.55,832.598 1239.5,832.5C 1240.78,831.069 1242.45,830.402 1244.5,830.5 Z"/></g>
<g><path fill="#df3232
" d="M 972.5,835.5 C 973.496,848.656 973.829,861.99 973.5,875.5C 967.31,875.823 961.31,875.49 955.5,874.5C 961.167,874.5 966.833,874.5 972.5,874.5C 972.5,861.5 972.5,848.5 972.5,835.5 Z"/></g>
<g><path fill="#df3232
" d="M 993.5,702.5 C 993.5,759.167 993.5,815.833 993.5,872.5C 1037.17,872.5 1080.83,872.5 1124.5,872.5C 1124.5,859.5 1124.5,846.5 1124.5,833.5C 1125.5,846.656 1125.83,859.99 1125.5,873.5C 1081.17,873.5 1036.83,873.5 992.5,873.5C 992.168,816.331 992.501,759.331 993.5,702.5 Z"/></g>
<g><path fill="#df3232
" d="M 1551.5,702.5 C 1551.5,759.167 1551.5,815.833 1551.5,872.5C 1595.17,872.5 1638.83,872.5 1682.5,872.5C 1682.5,859.5 1682.5,846.5 1682.5,833.5C 1683.5,846.656 1683.83,859.99 1683.5,873.5C 1639.17,873.5 1594.83,873.5 1550.5,873.5C 1550.17,816.331 1550.5,759.331 1551.5,702.5 Z"/></g>
</svg>
