<?xml version="1.0" encoding="UTF-8"?>
<svg id="_레이어_2" data-name="레이어 2" xmlns="http://www.w3.org/2000/svg" viewBox="0 0 196.41 38.39">
  <defs>
    <style>
      .cls-1 {
        fill: #df3232;
      }
    </style>
  </defs>
  <g id="_레이어_4" data-name="레이어 4">
    <g>
      <path class="cls-1" d="M65.01,27.12c0,6.79-4.66,10.77-10.15,10.77-2.31,0-4.23-.61-5.6-1.52-.4.65-1.16.98-2.13.98h-4.34V8.08h7.08v9.5c1.34-.72,3.04-1.19,4.99-1.19,6,0,10.15,4.37,10.15,10.73ZM57.85,27.12c0-2.57-1.63-4.34-4.08-4.34s-4.08,1.73-4.08,4.08v.54c0,2.46,1.7,4.08,4.08,4.08s4.08-1.77,4.08-4.37Z"/>
      <path class="cls-1" d="M90.52,31.42v5.78c-.94.33-1.92.51-2.89.51-1.84,0-3.61-.65-4.55-1.95-1.34,1.19-3.58,2.13-6.43,2.13-5.49,0-10.15-3.97-10.15-10.77,0-6.36,4.16-10.73,10.15-10.73,2.46,0,4.55.72,5.96,1.84.4-.76,1.05-1.23,1.92-1.23h4.19v12.72c0,1.3.29,1.73,1.23,1.73.14,0,.36,0,.58-.04ZM81.81,26.87c0-2.35-1.73-4.08-4.08-4.08s-4.08,1.77-4.08,4.34,1.63,4.37,4.08,4.37,4.08-1.63,4.08-4.08v-.54Z"/>
      <path class="cls-1" d="M92.73,30.81V8.08h7.05v21.5c0,1.48.58,1.92,1.55,1.92.4,0,.83-.04,1.34-.14v6.14c-.83.29-1.84.4-3.11.4-4.55,0-6.83-2.31-6.83-7.08Z"/>
      <path class="cls-1" d="M127.09,31.42v5.78c-.94.33-1.92.51-2.89.51-1.84,0-3.61-.65-4.55-1.95-1.34,1.19-3.58,2.13-6.43,2.13-5.49,0-10.15-3.97-10.15-10.77,0-6.36,4.16-10.73,10.15-10.73,2.46,0,4.55.72,5.96,1.84.4-.76,1.05-1.23,1.92-1.23h4.19v12.72c0,1.3.29,1.73,1.23,1.73.14,0,.36,0,.58-.04ZM118.38,26.87c0-2.35-1.73-4.08-4.08-4.08s-4.08,1.77-4.08,4.34,1.63,4.37,4.08,4.37,4.08-1.63,4.08-4.08v-.54Z"/>
      <path class="cls-1" d="M150.08,24.66v12.68h-7.08v-11.02c0-2.42-1.16-3.83-3.14-3.83s-3.25,1.26-3.47,3.54v11.31h-7.08v-20.42h3.97c1.19,0,2.02,1.01,2.31,2.17l.04.07c1.48-1.7,3.83-2.78,6.4-2.78,4.23,0,8.06,2.89,8.06,8.27Z"/>
      <path class="cls-1" d="M152.29,27.16c0-6.32,4.62-10.77,11.2-10.77,4.44,0,8.46,2.38,10.12,5.75l-5.93,3.11c-.61-1.45-2.35-2.49-4.19-2.49-2.42,0-4.12,1.84-4.12,4.41s1.7,4.37,4.12,4.37c1.81,0,3.54-1.05,4.19-2.49l5.93,3.11c-1.66,3.36-5.85,5.75-10.12,5.75-6.58,0-11.2-4.44-11.2-10.73Z"/>
      <path class="cls-1" d="M196.3,28.96h-14.67c.47,1.95,2.49,3.04,4.44,3.04,1.73,0,3.32-.76,4.08-2.02l6.11,1.99c-1.59,3.58-5.38,5.93-10.08,5.93-7.95,0-11.82-5.2-11.82-10.8s3.72-10.7,11.24-10.7c6.43,0,10.8,4.26,10.8,10.59,0,.58-.04,1.48-.11,1.99ZM189.69,24.92c-.18-1.84-1.81-3.07-4.08-3.07s-3.94,1.26-4.12,3.07h8.2Z"/>
      <path class="cls-1" d="M25.11,7.13c0-.93.13-1.78.37-2.55-2.14-.77-4.52-1.19-7.07-1.19C7.64,3.39,0,10.69,0,20.89s7.64,17.5,18.41,17.5,18.28-7.29,18.28-17.5c0-2.64-.51-5.08-1.44-7.25-.91.41-1.95.63-3.1.63-4.01,0-7.04-2.67-7.04-7.14M18.41,30.4c-5.34,0-9.38-3.56-9.38-9.51s3.73-9.51,9.38-9.51,9.25,3.91,9.25,9.51-3.74,9.51-9.25,9.51"/>
      <path class="cls-1" d="M39.09,7.13c0-4.2-2.67-7.13-6.94-7.13-3.34,0-5.78,1.72-6.67,4.58,4.5,1.62,7.95,4.82,9.77,9.06,2.37-1.06,3.84-3.4,3.84-6.51"/>
    </g>
  </g>
</svg>